{"accessors":[{"bufferView":0,"componentType":5125,"count":9204,"max":[4987.0],"min":[0.0],"type":"SCALAR"},{"bufferView":1,"componentType":5126,"count":4988,"max":[15.679558753967286,0.6914299726486206,1.1754943508222876e-38],"min":[-45.537208557128909,0.0,-23.527183532714845],"type":"VEC3"},{"bufferView":2,"componentType":5126,"count":4988,"max":[1.0,1.0,1.0],"min":[-1.0,-1.0,-1.0],"type":"VEC3"},{"bufferView":3,"componentType":5126,"count":4988,"max":[1.0,1.0],"min":[0.0,0.0],"type":"VEC2"},{"bufferView":4,"componentType":5125,"count":9174,"max":[4987.0],"min":[0.0],"type":"SCALAR"},{"bufferView":5,"componentType":5126,"count":4988,"max":[1.1754943508222876e-38,0.6914299726486206,1.1754943508222876e-38],"min":[-29.46109390258789,0.0,-20.93727684020996],"type":"VEC3"},{"bufferView":6,"componentType":5126,"count":4988,"max":[1.0,1.0,1.0],"min":[-1.0,-1.0,-1.0],"type":"VEC3"},{"bufferView":7,"componentType":5126,"count":4988,"max":[1.0,1.0],"min":[0.0,0.0],"type":"VEC2"},{"bufferView":8,"componentType":5125,"count":6150,"max":[3243.0],"min":[0.0],"type":"SCALAR"},{"bufferView":9,"componentType":5126,"count":3244,"max":[13.881255149841309,1.6770973205566407,1.1754943508222876e-38],"min":[-10.104138374328614,-1.3234889800848444e-23,-20.93727684020996],"type":"VEC3"},{"bufferView":10,"componentType":5126,"count":3244,"max":[1.0,1.0,1.0],"min":[-1.0,-1.0,-1.0],"type":"VEC3"},{"bufferView":11,"componentType":5126,"count":3244,"max":[1.0,1.0],"min":[-2.220446049250313e-16,0.0],"type":"VEC2"},{"bufferView":12,"componentType":5125,"count":792,"max":[527.0],"min":[0.0],"type":"SCALAR"},{"bufferView":13,"componentType":5126,"count":528,"max":[2.822371006011963,6.856955528259277,1.1754943508222876e-38],"min":[-45.647987365722659,3.9799689558568319e-15,-20.904468536376954],"type":"VEC3"},{"bufferView":14,"componentType":5126,"count":528,"max":[1.0,1.0,1.0],"min":[-1.0,-1.0,-1.0],"type":"VEC3"},{"bufferView":15,"componentType":5126,"count":528,"max":[1.0,1.0],"min":[0.0,0.0],"type":"VEC2"},{"bufferView":16,"componentType":5125,"count":3696,"max":[2111.0],"min":[0.0],"type":"SCALAR"},{"bufferView":17,"componentType":5126,"count":2112,"max":[2.8551793098449709,6.889763832092285,1.1754943508222876e-38],"min":[-45.68079376220703,-5.3290705182007517e-15,-20.93727684020996],"type":"VEC3"},{"bufferView":18,"componentType":5126,"count":2112,"max":[1.0,1.0,1.0],"min":[-1.0,-1.0,-1.0],"type":"VEC3"},{"bufferView":19,"componentType":5126,"count":2112,"max":[1.0,1.0],"min":[0.0,0.0],"type":"VEC2"},{"bufferView":20,"componentType":5125,"count":180,"max":[119.0],"min":[0.0],"type":"SCALAR"},{"bufferView":21,"componentType":5126,"count":120,"max":[12.752080917358399,1.677245855331421,1.1754943508222876e-38],"min":[-0.655319333076477,0.6914299726486206,-26.671445846557618],"type":"VEC3"},{"bufferView":22,"componentType":5126,"count":120,"max":[1.0,1.0,1.0],"min":[-1.0,-1.0,-1.0],"type":"VEC3"},{"bufferView":23,"componentType":5126,"count":120,"max":[1.0,1.0],"min":[-1.1102230246251566e-16,0.0],"type":"VEC2"},{"bufferView":24,"componentType":5125,"count":144,"max":[95.0],"min":[0.0],"type":"SCALAR"},{"bufferView":25,"componentType":5126,"count":96,"max":[1281.2593994140625,324.3111572265625,1.1754943508222876e-38],"min":[1278.6981201171875,324.21771240234377,-1223.96826171875],"type":"VEC3"},{"bufferView":26,"componentType":5126,"count":96,"max":[0.9843138456344605,1.0,0.9843138456344605],"min":[-0.9843137264251709,-1.0,-0.9843137264251709],"type":"VEC3"},{"bufferView":27,"componentType":5126,"count":96,"max":[1.0,1.0],"min":[-5.684341886080802e-14,0.0],"type":"VEC2"},{"bufferView":28,"componentType":5125,"count":756,"max":[311.0],"min":[0.0],"type":"SCALAR"},{"bufferView":29,"componentType":5126,"count":312,"max":[1281.4501953125,324.31103515625,1.1754943508222876e-38],"min":[1278.5042724609375,322.67059326171877,-1225.102783203125],"type":"VEC3"},{"bufferView":30,"componentType":5126,"count":312,"max":[0.9843138456344605,1.0,0.9843138456344605],"min":[-0.9843137264251709,-1.0,-0.9843137264251709],"type":"VEC3"},{"bufferView":31,"componentType":5126,"count":312,"max":[0.9819748997688294,1.0],"min":[0.0,0.0],"type":"VEC2"}],"asset":{"generator":"SimLab GLTF","version":"2.0"},"bufferViews":[{"buffer":0,"byteLength":36816,"target":34963},{"buffer":0,"byteLength":59856,"byteOffset":36816,"byteStride":12,"target":34962},{"buffer":0,"byteLength":59856,"byteOffset":96672,"byteStride":12,"target":34962},{"buffer":0,"byteLength":39904,"byteOffset":156528,"byteStride":8,"target":34962},{"buffer":0,"byteLength":36696,"byteOffset":196432,"target":34963},{"buffer":0,"byteLength":59856,"byteOffset":233128,"byteStride":12,"target":34962},{"buffer":0,"byteLength":59856,"byteOffset":292984,"byteStride":12,"target":34962},{"buffer":0,"byteLength":39904,"byteOffset":352840,"byteStride":8,"target":34962},{"buffer":0,"byteLength":24600,"byteOffset":392744,"target":34963},{"buffer":0,"byteLength":38928,"byteOffset":417344,"byteStride":12,"target":34962},{"buffer":0,"byteLength":38928,"byteOffset":456272,"byteStride":12,"target":34962},{"buffer":0,"byteLength":25952,"byteOffset":495200,"byteStride":8,"target":34962},{"buffer":0,"byteLength":3168,"byteOffset":521152,"target":34963},{"buffer":0,"byteLength":6336,"byteOffset":524320,"byteStride":12,"target":34962},{"buffer":0,"byteLength":6336,"byteOffset":530656,"byteStride":12,"target":34962},{"buffer":0,"byteLength":4224,"byteOffset":536992,"byteStride":8,"target":34962},{"buffer":0,"byteLength":14784,"byteOffset":541216,"target":34963},{"buffer":0,"byteLength":25344,"byteOffset":556000,"byteStride":12,"target":34962},{"buffer":0,"byteLength":25344,"byteOffset":581344,"byteStride":12,"target":34962},{"buffer":0,"byteLength":16896,"byteOffset":606688,"byteStride":8,"target":34962},{"buffer":0,"byteLength":720,"byteOffset":623584,"target":34963},{"buffer":0,"byteLength":1440,"byteOffset":624304,"byteStride":12,"target":34962},{"buffer":0,"byteLength":1440,"byteOffset":625744,"byteStride":12,"target":34962},{"buffer":0,"byteLength":960,"byteOffset":627184,"byteStride":8,"target":34962},{"buffer":0,"byteLength":576,"byteOffset":628144,"target":34963},{"buffer":0,"byteLength":1152,"byteOffset":628720,"byteStride":12,"target":34962},{"buffer":0,"byteLength":1152,"byteOffset":629872,"byteStride":12,"target":34962},{"buffer":0,"byteLength":768,"byteOffset":631024,"byteStride":8,"target":34962},{"buffer":0,"byteLength":3024,"byteOffset":631792,"target":34963},{"buffer":0,"byteLength":3744,"byteOffset":634816,"byteStride":12,"target":34962},{"buffer":0,"byteLength":3744,"byteOffset":638560,"byteStride":12,"target":34962},{"buffer":0,"byteLength":2496,"byteOffset":642304,"byteStride":8,"target":34962}],"buffers":[{"byteLength":644800,"uri":"aaaa.bin"}],"images":[{"mimeType":"image/png","uri":"Textures/Woods & Plastics.Finish Carpentry.Wood.Red Oak.png"}],"materials":[{"alphaMode":"MASK","doubleSided":true,"pbrMetallicRoughness":{"baseColorFactor":[0.38431376218795779,0.38431376218795779,0.38431376218795779,1.0],"metallicFactor":0.0}},{"alphaMode":"MASK","doubleSided":true,"pbrMetallicRoughness":{"baseColorFactor":[0.0,0.0,1.0,1.0],"metallicFactor":0.0}},{"alphaMode":"MASK","doubleSided":true,"pbrMetallicRoughness":{"baseColorFactor":[0.49803924560546877,0.49803924560546877,0.49803924560546877,1.0],"metallicFactor":0.0}},{"alphaMode":"MASK","doubleSided":true,"pbrMetallicRoughness":{"baseColorTexture":{"index":0},"metallicFactor":0.0}}],"meshes":[{"primitives":[{"attributes":{"NORMAL":2,"POSITION":1,"TEXCOORD_0":3},"indices":0,"material":0,"mode":4}]},{"primitives":[{"attributes":{"NORMAL":6,"POSITION":5,"TEXCOORD_0":7},"indices":4,"material":0,"mode":4}]},{"primitives":[{"attributes":{"NORMAL":10,"POSITION":9,"TEXCOORD_0":11},"indices":8,"material":0,"mode":4}]},{"primitives":[{"attributes":{"NORMAL":14,"POSITION":13,"TEXCOORD_0":15},"indices":12,"material":1,"mode":4}]},{"primitives":[{"attributes":{"NORMAL":18,"POSITION":17,"TEXCOORD_0":19},"indices":16,"material":2,"mode":4}]},{"primitives":[{"attributes":{"NORMAL":22,"POSITION":21,"TEXCOORD_0":23},"indices":20,"material":3,"mode":4}]},{"primitives":[{"attributes":{"NORMAL":26,"POSITION":25,"TEXCOORD_0":27},"indices":24,"material":3,"mode":4}]},{"primitives":[{"attributes":{"NORMAL":30,"POSITION":29,"TEXCOORD_0":31},"indices":28,"material":0,"mode":4}]}],"nodes":[{"children":[1,2],"matrix":[1.0,0.0,0.0,0.0,0.0,4.4896593387466768e-11,-1.0,0.0,0.0,1.0,4.4896593387466768e-11,0.0,0.0,0.0,0.0,1.0]},{"name":"Camera~13","rotation":[-0.7071067690849304,0.0,0.0,-0.7071067690849304],"translation":[-2.3897528648376467,-90.49129486083985,1.0499999523162842]},{"children":[3,36],"rotation":[-0.7071067690849304,0.0,0.0,-0.7071067690849304],"scale":[0.30480000376701357,0.30480000376701357,0.30480000376701357]},{"name":"Modelos genéricos (2)","children":[4,26],"rotation":[0.0,0.0,0.0,-1.0]},{"name":"BANCO1 (1)","children":[5,15,18,21,24,25],"rotation":[0.0,0.0,0.0,-1.0]},{"children":[6,9,12],"rotation":[0.0,0.0,0.0,-1.0]},{"name":"3DGeom~7","children":[8],"rotation":[0.0,0.0,0.0,-1.0]},{"mesh":0},{"children":[7]},{"name":"3DGeom~8","children":[11],"rotation":[0.0,0.0,0.0,-1.0]},{"mesh":1},{"children":[10]},{"name":"3DGeom~9","children":[14],"rotation":[0.0,0.0,0.0,-1.0]},{"mesh":2},{"children":[13]},{"children":[17],"rotation":[0.0,0.0,0.0,-1.0]},{"mesh":3},{"children":[16]},{"children":[20],"rotation":[0.0,0.0,0.0,-1.0]},{"mesh":4},{"children":[19]},{"children":[23],"rotation":[0.0,0.0,0.0,-1.0]},{"mesh":5},{"children":[22]},{"rotation":[0.0,0.0,0.0,-1.0]},{"rotation":[0.0,0.0,0.0,-1.0]},{"name":"BANCO16 (1)","children":[27],"rotation":[0.0,0.6473796963691711,0.0,-0.7621676325798035],"translation":[-1402.1546630859375,-322.6339111328125,-1077.5635986328125]},{"children":[28,31,34,35],"rotation":[0.0,0.0,0.0,-1.0]},{"children":[30],"rotation":[0.0,0.0,0.0,-1.0]},{"mesh":6},{"children":[29]},{"children":[33],"rotation":[0.0,0.0,0.0,-1.0]},{"mesh":7},{"children":[32]},{"rotation":[0.0,0.0,0.0,-1.0]},{"rotation":[0.0,0.0,0.0,-1.0]},{"name":"Níveis (1)","rotation":[0.0,0.0,0.0,-1.0]}],"samplers":[{"wrapS":10497,"wrapT":10497}],"scene":0,"scenes":[{"nodes":[0]}],"textures":[{"source":0}]}